<svg width="833" height="533" viewBox="0 0 833 533" fill="none" xmlns="http://www.w3.org/2000/svg">
<rect x="24" y="48" width="809" height="438" fill="#010BFF"/>
<line x1="25" y1="386" x2="633" y2="386" stroke="#010BFF" stroke-width="2"/>
<path d="M158.099 240.315L148.086 234.639L141.952 244.952L151.965 250.628L158.099 240.315Z" fill="white"/>
<path d="M141.952 244.997L131.938 239.32L125.804 249.633L135.818 255.309L141.952 244.997Z" fill="white"/>
<path d="M121.883 233.687L111.87 228.011L105.736 238.324L115.749 244L121.883 233.687Z" fill="white"/>
<path d="M131.918 239.342L121.904 233.666L115.77 243.978L125.783 249.655L131.918 239.342Z" fill="white"/>
<path d="M111.848 228.033L101.835 222.356L95.7008 232.669L105.714 238.346L111.848 228.033Z" fill="white"/>
<path d="M101.814 222.378L91.8008 216.701L85.6666 227.014L95.6799 232.691L101.814 222.378Z" fill="white"/>
<path d="M97.8932 206.388L87.8799 200.711L81.7457 211.024L91.759 216.701L97.8932 206.388Z" fill="white"/>
<path d="M202.621 210.286L192.607 204.609L186.473 214.922L196.487 220.599L202.621 210.286Z" fill="white"/>
<path d="M194.779 178.306L184.766 172.629L178.631 182.942L188.645 188.619L194.779 178.306Z" fill="white"/>
<path d="M182.552 198.976L172.539 193.299L166.405 203.612L176.418 209.289L182.552 198.976Z" fill="white"/>
<path d="M198.7 194.296L188.687 188.619L182.552 198.932L192.566 204.609L198.7 194.296Z" fill="white"/>
<path d="M214.847 189.615L204.834 183.938L198.7 194.251L208.713 199.928L214.847 189.615Z" fill="white"/>
<path d="M102.277 153.739L92.2637 148.062L86.1295 158.375L96.1428 164.052L102.277 153.739Z" fill="white"/>
<path d="M134.573 144.378L124.56 138.701L118.425 149.014L128.439 154.691L134.573 144.378Z" fill="white"/>
<path d="M122.346 165.048L112.333 159.371L106.199 169.684L116.212 175.361L122.346 165.048Z" fill="white"/>
<path d="M118.425 149.059L108.412 143.382L102.278 153.695L112.291 159.372L118.425 149.059Z" fill="white"/>
<path d="M114.504 133.068L104.49 127.392L98.3561 137.705L108.369 143.381L114.504 133.068Z" fill="white"/>
<path d="M186.01 283.604L175.997 277.927L169.863 288.24L179.876 293.917L186.01 283.604Z" fill="white"/>
<path d="M169.863 288.286L159.85 282.609L153.715 292.922L163.729 298.599L169.863 288.286Z" fill="white"/>
<path d="M153.715 292.965L143.702 287.289L137.568 297.601L147.581 303.278L153.715 292.965Z" fill="white"/>
<path d="M87.3961 269.372L77.3828 263.695L71.2487 274.008L81.262 279.685L87.3961 269.372Z" fill="white"/>
<path d="M137.568 297.645L127.555 291.969L121.421 302.282L131.434 307.958L137.568 297.645Z" fill="white"/>
<path d="M117.499 286.336L107.485 280.66L101.351 290.973L111.365 296.649L117.499 286.336Z" fill="white"/>
<path d="M127.533 291.991L117.52 286.314L111.385 296.627L121.399 302.304L127.533 291.991Z" fill="white"/>
<path d="M97.4303 275.027L87.417 269.35L81.2828 279.663L91.2962 285.34L97.4303 275.027Z" fill="white"/>
<path d="M107.464 280.682L97.4512 275.005L91.317 285.318L101.33 290.995L107.464 280.682Z" fill="white"/>
<path d="M77.362 263.718L67.3486 258.041L61.2145 268.354L71.2278 274.031L77.362 263.718Z" fill="white"/>
<path d="M67.3268 258.063L57.3135 252.386L51.1793 262.699L61.1926 268.376L67.3268 258.063Z" fill="white"/>
<path d="M57.2926 252.408L47.2793 246.731L41.1451 257.044L51.1585 262.721L57.2926 252.408Z" fill="white"/>
<path d="M53.3717 236.419L43.3584 230.742L37.2242 241.055L47.2376 246.732L53.3717 236.419Z" fill="white"/>
<path d="M49.4508 220.429L39.4375 214.752L33.3033 225.065L43.3167 230.742L49.4508 220.429Z" fill="white"/>
<path d="M45.5299 204.439L35.5166 198.763L29.3824 209.076L39.3958 214.752L45.5299 204.439Z" fill="white"/>
<path d="M202.158 278.925L192.145 273.248L186.01 283.561L196.024 289.238L202.158 278.925Z" fill="white"/>
<path d="M208.271 268.59L198.258 262.913L192.124 273.226L202.137 278.903L208.271 268.59Z" fill="white"/>
<path d="M214.384 258.254L204.371 252.578L198.237 262.891L208.25 268.567L214.384 258.254Z" fill="white"/>
<path d="M53.8346 167.779L43.8213 162.103L37.6871 172.415L47.7004 178.092L53.8346 167.779Z" fill="white"/>
<path d="M59.9479 157.445L49.9346 151.769L43.8004 162.081L53.8137 167.758L59.9479 157.445Z" fill="white"/>
<path d="M41.6081 188.45L31.5947 182.773L25.4606 193.086L35.4739 198.763L41.6081 188.45Z" fill="white"/>
<path d="M47.7213 178.115L37.708 172.438L31.5738 182.751L41.5872 188.428L47.7213 178.115Z" fill="white"/>
<path d="M226.611 237.585L216.598 231.908L210.463 242.221L220.477 247.898L226.611 237.585Z" fill="white"/>
<path d="M232.724 227.25L222.711 221.573L216.577 231.886L226.59 237.563L232.724 227.25Z" fill="white"/>
<path d="M238.838 216.915L228.824 211.238L222.69 221.551L232.703 227.228L238.838 216.915Z" fill="white"/>
<path d="M220.498 247.919L210.484 242.243L204.35 252.556L214.364 258.232L220.498 247.919Z" fill="white"/>
<path d="M251.063 196.245L241.05 190.568L234.916 200.881L244.929 206.557L251.063 196.245Z" fill="white"/>
<path d="M244.95 206.579L234.937 200.902L228.802 211.215L238.816 216.892L244.95 206.579Z" fill="white"/>
<path d="M247.142 180.255L237.129 174.578L230.995 184.891L241.008 190.568L247.142 180.255Z" fill="white"/>
<path d="M243.221 164.265L233.208 158.588L227.074 168.901L237.087 174.578L243.221 164.265Z" fill="white"/>
<path d="M239.3 148.275L229.287 142.598L223.153 152.911L233.166 158.588L239.3 148.275Z" fill="white"/>
<path d="M235.379 132.286L225.365 126.609L219.231 136.922L229.244 142.599L235.379 132.286Z" fill="white"/>
<path d="M225.344 126.631L215.331 120.955L209.197 131.268L219.21 136.944L225.344 126.631Z" fill="white"/>
<path d="M215.31 120.977L205.297 115.3L199.163 125.613L209.176 131.289L215.31 120.977Z" fill="white"/>
<path d="M205.276 115.322L195.263 109.645L189.129 119.958L199.142 125.635L205.276 115.322Z" fill="white"/>
<path d="M195.242 109.667L185.229 103.991L179.094 114.304L189.108 119.98L195.242 109.667Z" fill="white"/>
<path d="M185.207 104.012L175.193 98.3354L169.059 108.648L179.073 114.325L185.207 104.012Z" fill="white"/>
<path d="M175.173 98.3579L165.159 92.6812L159.025 102.994L169.038 108.671L175.173 98.3579Z" fill="white"/>
<path d="M165.138 92.7031L155.125 87.0264L148.991 97.3393L159.004 103.016L165.138 92.7031Z" fill="white"/>
<path d="M155.104 87.0483L145.091 81.3716L138.957 91.6845L148.97 97.3612L155.104 87.0483Z" fill="white"/>
<path d="M138.957 91.7285L128.943 86.0518L122.809 96.3647L132.823 102.041L138.957 91.7285Z" fill="white"/>
<path d="M122.809 96.4092L112.796 90.7324L106.662 101.045L116.675 106.722L122.809 96.4092Z" fill="white"/>
<path d="M106.662 101.089L96.6484 95.4126L90.5143 105.726L100.528 111.402L106.662 101.089Z" fill="white"/>
<path d="M66.0612 147.11L56.0479 141.433L49.9137 151.746L59.927 157.423L66.0612 147.11Z" fill="white"/>
<path d="M72.1745 136.775L62.1611 131.098L56.027 141.411L66.0403 147.088L72.1745 136.775Z" fill="white"/>
<path d="M78.2877 126.44L68.2744 120.763L62.1402 131.076L72.1536 136.753L78.2877 126.44Z" fill="white"/>
<path d="M84.401 116.105L74.3877 110.428L68.2535 120.741L78.2668 126.418L84.401 116.105Z" fill="white"/>
<path d="M90.5143 105.769L80.501 100.093L74.3668 110.406L84.3801 116.082L90.5143 105.769Z" fill="white"/>
<path d="M729.981 390.835L721.112 398.115L728.979 407.247L737.848 399.968L729.981 390.835Z" fill="white"/>
<path d="M728.98 407.248L720.111 414.527L727.978 423.66L736.847 416.381L728.98 407.248Z" fill="white"/>
<path d="M711.243 421.804L702.374 429.083L710.24 438.216L719.11 430.936L711.243 421.804Z" fill="white"/>
<path d="M720.112 414.526L711.243 421.805L719.11 430.938L727.979 423.659L720.112 414.526Z" fill="white"/>
<path d="M702.374 429.082L693.504 436.361L701.371 445.494L710.241 438.214L702.374 429.082Z" fill="white"/>
<path d="M693.506 436.358L684.636 443.638L692.503 452.77L701.373 445.491L693.506 436.358Z" fill="white"/>
<path d="M676.768 434.502L667.899 441.781L675.766 450.914L684.635 443.635L676.768 434.502Z" fill="white"/>
<path d="M716.248 339.742L707.378 347.021L715.245 356.154L724.115 348.875L716.248 339.742Z" fill="white"/>
<path d="M682.774 336.029L673.905 343.308L681.772 352.441L690.641 345.162L682.774 336.029Z" fill="white"/>
<path d="M698.511 354.298L689.641 361.577L697.508 370.71L706.378 363.431L698.511 354.298Z" fill="white"/>
<path d="M699.511 337.886L690.641 345.165L698.508 354.298L707.378 347.018L699.511 337.886Z" fill="white"/>
<path d="M700.512 321.473L691.642 328.752L699.509 337.885L708.379 330.606L700.512 321.473Z" fill="white"/>
<path d="M627.559 412.52L618.69 419.799L626.557 428.932L635.426 421.652L627.559 412.52Z" fill="white"/>
<path d="M629.561 379.695L620.692 386.974L628.559 396.107L637.428 388.828L629.561 379.695Z" fill="white"/>
<path d="M645.298 397.964L636.428 405.243L644.295 414.376L653.165 407.097L645.298 397.964Z" fill="white"/>
<path d="M628.56 396.107L619.691 403.387L627.558 412.519L636.427 405.24L628.56 396.107Z" fill="white"/>
<path d="M611.824 394.25L602.955 401.53L610.822 410.662L619.691 403.383L611.824 394.25Z" fill="white"/>
<path d="M781.192 379.994L772.323 387.273L780.19 396.406L789.059 389.126L781.192 379.994Z" fill="white"/>
<path d="M780.191 396.406L771.322 403.686L779.189 412.818L788.058 405.539L780.191 396.406Z" fill="white"/>
<path d="M779.191 412.818L770.322 420.097L778.189 429.23L787.058 421.951L779.191 412.818Z" fill="white"/>
<path d="M733.846 465.62L724.976 472.899L732.843 482.032L741.713 474.752L733.846 465.62Z" fill="white"/>
<path d="M778.19 429.23L769.321 436.51L777.188 445.642L786.057 438.363L778.19 429.23Z" fill="white"/>
<path d="M760.452 443.786L751.583 451.065L759.449 460.198L768.319 452.919L760.452 443.786Z" fill="white"/>
<path d="M769.321 436.508L760.452 443.788L768.319 452.92L777.188 445.641L769.321 436.508Z" fill="white"/>
<path d="M742.715 458.342L733.845 465.621L741.712 474.754L750.582 467.474L742.715 458.342Z" fill="white"/>
<path d="M751.584 451.064L742.714 458.343L750.581 467.476L759.451 460.197L751.584 451.064Z" fill="white"/>
<path d="M724.977 472.897L716.108 480.177L723.975 489.309L732.844 482.03L724.977 472.897Z" fill="white"/>
<path d="M716.108 480.175L707.239 487.454L715.106 496.587L723.975 489.308L716.108 480.175Z" fill="white"/>
<path d="M707.239 487.453L698.37 494.732L706.237 503.865L715.106 496.585L707.239 487.453Z" fill="white"/>
<path d="M690.503 485.596L681.633 492.875L689.5 502.008L698.37 494.729L690.503 485.596Z" fill="white"/>
<path d="M673.766 483.739L664.896 491.019L672.763 500.151L681.632 492.872L673.766 483.739Z" fill="white"/>
<path d="M657.029 481.882L648.16 489.162L656.027 498.294L664.896 491.015L657.029 481.882Z" fill="white"/>
<path d="M782.193 363.581L773.324 370.86L781.191 379.993L790.06 372.714L782.193 363.581Z" fill="white"/>
<path d="M774.326 354.447L765.457 361.727L773.323 370.859L782.193 363.58L774.326 354.447Z" fill="white"/>
<path d="M766.458 345.312L757.588 352.592L765.455 361.725L774.325 354.445L766.458 345.312Z" fill="white"/>
<path d="M624.557 461.756L615.687 469.036L623.554 478.168L632.423 470.889L624.557 461.756Z" fill="white"/>
<path d="M616.689 452.622L607.82 459.901L615.687 469.034L624.556 461.754L616.689 452.622Z" fill="white"/>
<path d="M640.293 480.025L631.423 487.305L639.29 496.437L648.16 489.158L640.293 480.025Z" fill="white"/>
<path d="M632.425 470.891L623.555 478.17L631.422 487.303L640.292 480.024L632.425 470.891Z" fill="white"/>
<path d="M750.723 327.043L741.853 334.322L749.72 343.455L758.589 336.176L750.723 327.043Z" fill="white"/>
<path d="M742.854 317.909L733.985 325.188L741.852 334.321L750.721 327.042L742.854 317.909Z" fill="white"/>
<path d="M734.986 308.774L726.117 316.053L733.984 325.186L742.853 317.907L734.986 308.774Z" fill="white"/>
<path d="M758.59 336.177L749.72 343.457L757.587 352.589L766.457 345.31L758.59 336.177Z" fill="white"/>
<path d="M719.251 290.505L710.381 297.784L718.248 306.917L727.118 299.638L719.251 290.505Z" fill="white"/>
<path d="M727.118 299.64L718.249 306.919L726.115 316.052L734.985 308.773L727.118 299.64Z" fill="white"/>
<path d="M702.514 288.648L693.644 295.928L701.511 305.06L710.381 297.781L702.514 288.648Z" fill="white"/>
<path d="M685.777 286.792L676.908 294.071L684.775 303.204L693.644 295.925L685.777 286.792Z" fill="white"/>
<path d="M669.04 284.935L660.17 292.214L668.037 301.347L676.907 294.068L669.04 284.935Z" fill="white"/>
<path d="M652.304 283.078L643.434 290.357L651.301 299.49L660.171 292.21L652.304 283.078Z" fill="white"/>
<path d="M643.435 290.355L634.566 297.635L642.433 306.767L651.302 299.488L643.435 290.355Z" fill="white"/>
<path d="M634.566 297.633L625.697 304.913L633.564 314.045L642.433 306.766L634.566 297.633Z" fill="white"/>
<path d="M625.697 304.912L616.828 312.191L624.695 321.324L633.564 314.044L625.697 304.912Z" fill="white"/>
<path d="M616.829 312.189L607.959 319.468L615.826 328.601L624.696 321.322L616.829 312.189Z" fill="white"/>
<path d="M607.96 319.467L599.09 326.746L606.957 335.879L615.827 328.599L607.96 319.467Z" fill="white"/>
<path d="M599.091 326.744L590.221 334.023L598.088 343.156L606.958 335.877L599.091 326.744Z" fill="white"/>
<path d="M590.222 334.022L581.352 341.302L589.219 350.434L598.088 343.155L590.222 334.022Z" fill="white"/>
<path d="M581.353 341.3L572.484 348.579L580.351 357.712L589.22 350.433L581.353 341.3Z" fill="white"/>
<path d="M580.352 357.712L571.483 364.991L579.35 374.124L588.219 366.845L580.352 357.712Z" fill="white"/>
<path d="M579.351 374.125L570.482 381.404L578.349 390.537L587.218 383.258L579.351 374.125Z" fill="white"/>
<path d="M578.35 390.537L569.481 397.816L577.348 406.949L586.217 399.669L578.35 390.537Z" fill="white"/>
<path d="M608.821 443.487L599.952 450.766L607.819 459.899L616.688 452.619L608.821 443.487Z" fill="white"/>
<path d="M600.953 434.353L592.083 441.632L599.95 450.765L608.82 443.485L600.953 434.353Z" fill="white"/>
<path d="M593.085 425.218L584.215 432.498L592.082 441.63L600.952 434.351L593.085 425.218Z" fill="white"/>
<path d="M585.218 416.084L576.348 423.363L584.215 432.495L593.085 425.216L585.218 416.084Z" fill="white"/>
<path d="M577.349 406.949L568.48 414.229L576.347 423.361L585.216 416.082L577.349 406.949Z" fill="white"/>
<path d="M447.411 376.984L432.052 376.604L431.617 392.461L446.976 392.841L447.411 376.984Z" fill="white"/>
<path d="M431.617 392.666L416.258 392.286L415.823 408.143L431.182 408.523L431.617 392.666Z" fill="white"/>
<path d="M400.627 392.111L385.268 391.731L384.832 407.588L400.192 407.968L400.627 392.111Z" fill="white"/>
<path d="M416.122 392.388L400.763 392.008L400.327 407.865L415.687 408.245L416.122 392.388Z" fill="white"/>
<path d="M385.132 391.834L369.773 391.454L369.337 407.311L384.696 407.691L385.132 391.834Z" fill="white"/>
<path d="M369.637 391.556L354.278 391.176L353.842 407.033L369.201 407.413L369.637 391.556Z" fill="white"/>
<path d="M354.443 375.32L339.083 374.94L338.648 390.797L354.007 391.177L354.443 375.32Z" fill="white"/>
<path d="M479.6 313.703L464.241 313.323L463.805 329.18L479.164 329.56L479.6 313.703Z" fill="white"/>
<path d="M449.209 281.229L433.85 280.85L433.414 296.707L448.774 297.086L449.209 281.229Z" fill="white"/>
<path d="M448.611 313.148L433.251 312.769L432.816 328.626L448.175 329.005L448.611 313.148Z" fill="white"/>
<path d="M464.405 297.466L449.045 297.086L448.61 312.944L463.969 313.323L464.405 297.466Z" fill="white"/>
<path d="M480.2 281.784L464.84 281.405L464.405 297.262L479.764 297.641L480.2 281.784Z" fill="white"/>
<path d="M324.653 310.929L309.293 310.55L308.858 326.407L324.217 326.786L324.653 310.929Z" fill="white"/>
<path d="M356.241 279.565L340.882 279.186L340.447 295.043L355.806 295.422L356.241 279.565Z" fill="white"/>
<path d="M355.642 311.484L340.283 311.104L339.847 326.962L355.206 327.341L355.642 311.484Z" fill="white"/>
<path d="M340.447 295.248L325.087 294.868L324.652 310.725L340.011 311.105L340.447 295.248Z" fill="white"/>
<path d="M325.251 279.011L309.892 278.631L309.456 294.488L324.816 294.868L325.251 279.011Z" fill="white"/>
<path d="M508.79 410.01L493.431 409.631L492.995 425.488L508.355 425.868L508.79 410.01Z" fill="white"/>
<path d="M492.996 425.693L477.637 425.313L477.201 441.17L492.561 441.55L492.996 425.693Z" fill="white"/>
<path d="M477.201 441.374L461.842 440.994L461.407 456.851L476.766 457.231L477.201 441.374Z" fill="white"/>
<path d="M383.933 455.67L368.574 455.29L368.138 471.147L383.497 471.527L383.933 455.67Z" fill="white"/>
<path d="M461.408 457.056L446.048 456.677L445.613 472.534L460.972 472.913L461.408 457.056Z" fill="white"/>
<path d="M430.418 456.502L415.059 456.122L414.623 471.979L429.983 472.359L430.418 456.502Z" fill="white"/>
<path d="M445.912 456.778L430.553 456.398L430.117 472.256L445.477 472.635L445.912 456.778Z" fill="white"/>
<path d="M399.428 455.946L384.069 455.567L383.633 471.424L398.992 471.804L399.428 455.946Z" fill="white"/>
<path d="M414.923 456.224L399.564 455.844L399.128 471.701L414.487 472.081L414.923 456.224Z" fill="white"/>
<path d="M368.439 455.392L353.08 455.013L352.644 470.87L368.003 471.249L368.439 455.392Z" fill="white"/>
<path d="M352.944 455.115L337.584 454.735L337.149 470.592L352.508 470.972L352.944 455.115Z" fill="white"/>
<path d="M337.45 454.838L322.09 454.458L321.655 470.316L337.014 470.695L337.45 454.838Z" fill="white"/>
<path d="M322.254 438.601L306.895 438.222L306.459 454.079L321.818 454.458L322.254 438.601Z" fill="white"/>
<path d="M307.059 422.365L291.7 421.985L291.264 437.843L306.623 438.222L307.059 422.365Z" fill="white"/>
<path d="M291.865 406.129L276.505 405.75L276.07 421.607L291.429 421.986L291.865 406.129Z" fill="white"/>
<path d="M524.585 394.33L509.226 393.95L508.79 409.807L524.15 410.187L524.585 394.33Z" fill="white"/>
<path d="M524.885 378.37L509.526 377.991L509.09 393.848L524.449 394.227L524.885 378.37Z" fill="white"/>
<path d="M525.185 362.411L509.826 362.032L509.39 377.889L524.749 378.269L525.185 362.411Z" fill="white"/>
<path d="M277.269 357.974L261.91 357.594L261.474 373.451L276.833 373.831L277.269 357.974Z" fill="white"/>
<path d="M277.569 342.015L262.209 341.636L261.774 357.493L277.133 357.872L277.569 342.015Z" fill="white"/>
<path d="M276.669 389.892L261.31 389.513L260.874 405.37L276.233 405.749L276.669 389.892Z" fill="white"/>
<path d="M276.969 373.933L261.61 373.553L261.174 389.41L276.533 389.79L276.969 373.933Z" fill="white"/>
<path d="M525.784 330.493L510.425 330.113L509.99 345.97L525.349 346.35L525.784 330.493Z" fill="white"/>
<path d="M526.084 314.534L510.725 314.155L510.289 330.012L525.649 330.392L526.084 314.534Z" fill="white"/>
<path d="M526.384 298.575L511.025 298.195L510.589 314.052L525.948 314.432L526.384 298.575Z" fill="white"/>
<path d="M525.485 346.452L510.125 346.072L509.69 361.929L525.049 362.309L525.485 346.452Z" fill="white"/>
<path d="M526.984 266.657L511.625 266.277L511.189 282.134L526.548 282.514L526.984 266.657Z" fill="white"/>
<path d="M526.684 282.616L511.325 282.236L510.889 298.093L526.248 298.473L526.684 282.616Z" fill="white"/>
<path d="M511.789 250.421L496.43 250.041L495.994 265.898L511.354 266.278L511.789 250.421Z" fill="white"/>
<path d="M496.594 234.184L481.235 233.805L480.799 249.662L496.158 250.041L496.594 234.184Z" fill="white"/>
<path d="M481.399 217.947L466.04 217.568L465.604 233.425L480.963 233.805L481.399 217.947Z" fill="white"/>
<path d="M466.203 201.712L450.844 201.332L450.409 217.189L465.768 217.569L466.203 201.712Z" fill="white"/>
<path d="M450.708 201.435L435.349 201.055L434.913 216.912L450.273 217.292L450.708 201.435Z" fill="white"/>
<path d="M435.214 201.157L419.855 200.777L419.419 216.634L434.778 217.014L435.214 201.157Z" fill="white"/>
<path d="M419.719 200.88L404.36 200.5L403.924 216.357L419.283 216.737L419.719 200.88Z" fill="white"/>
<path d="M404.225 200.603L388.866 200.224L388.43 216.081L403.789 216.46L404.225 200.603Z" fill="white"/>
<path d="M388.73 200.325L373.371 199.946L372.935 215.803L388.294 216.182L388.73 200.325Z" fill="white"/>
<path d="M373.236 200.048L357.876 199.669L357.441 215.526L372.8 215.906L373.236 200.048Z" fill="white"/>
<path d="M357.741 199.771L342.381 199.391L341.946 215.248L357.305 215.628L357.741 199.771Z" fill="white"/>
<path d="M342.244 199.494L326.885 199.114L326.449 214.971L341.808 215.351L342.244 199.494Z" fill="white"/>
<path d="M326.451 215.175L311.092 214.795L310.657 230.653L326.016 231.032L326.451 215.175Z" fill="white"/>
<path d="M310.657 230.857L295.297 230.478L294.862 246.335L310.221 246.714L310.657 230.857Z" fill="white"/>
<path d="M294.862 246.538L279.502 246.159L279.067 262.016L294.426 262.395L294.862 246.538Z" fill="white"/>
<path d="M277.868 326.056L262.509 325.676L262.073 341.533L277.433 341.913L277.868 326.056Z" fill="white"/>
<path d="M278.168 310.097L262.809 309.717L262.373 325.574L277.733 325.954L278.168 310.097Z" fill="white"/>
<path d="M278.468 294.138L263.109 293.758L262.673 309.616L278.032 309.995L278.468 294.138Z" fill="white"/>
<path d="M278.768 278.179L263.409 277.8L262.973 293.657L278.332 294.036L278.768 278.179Z" fill="white"/>
<path d="M279.068 262.221L263.708 261.841L263.273 277.698L278.632 278.078L279.068 262.221Z" fill="white"/>
<path d="M659.592 182.183L653.742 185.084L656.879 191.112L662.729 188.21L659.592 182.183Z" fill="white"/>
<path d="M656.833 191.112L650.983 194.013L654.12 200.041L659.97 197.139L656.833 191.112Z" fill="white"/>
<path d="M645.088 196.873L639.238 199.775L642.375 205.802L648.225 202.901L645.088 196.873Z" fill="white"/>
<path d="M650.961 193.992L645.111 196.894L648.248 202.922L654.098 200.02L650.961 193.992Z" fill="white"/>
<path d="M639.216 199.754L633.366 202.656L636.503 208.683L642.353 205.782L639.216 199.754Z" fill="white"/>
<path d="M633.343 202.635L627.493 205.537L630.63 211.564L636.48 208.663L633.343 202.635Z" fill="white"/>
<path d="M624.357 199.467L618.507 202.369L621.644 208.396L627.494 205.495L624.357 199.467Z" fill="white"/>
<path d="M658.879 152.227L653.029 155.128L656.166 161.156L662.016 158.254L658.879 152.227Z" fill="white"/>
<path d="M640.906 145.891L635.056 148.793L638.192 154.82L644.042 151.919L640.906 145.891Z" fill="white"/>
<path d="M647.134 157.989L641.284 160.89L644.421 166.918L650.271 164.016L647.134 157.989Z" fill="white"/>
<path d="M649.892 149.06L644.042 151.961L647.179 157.989L653.029 155.087L649.892 149.06Z" fill="white"/>
<path d="M652.651 140.13L646.801 143.032L649.937 149.059L655.787 146.158L652.651 140.13Z" fill="white"/>
<path d="M600.154 181.034L594.304 183.936L597.44 189.963L603.29 187.062L600.154 181.034Z" fill="white"/>
<path d="M605.67 163.176L599.82 166.078L602.957 172.105L608.807 169.204L605.67 163.176Z" fill="white"/>
<path d="M611.899 175.273L606.049 178.175L609.186 184.202L615.035 181.301L611.899 175.273Z" fill="white"/>
<path d="M602.912 172.105L597.062 175.007L600.199 181.034L606.049 178.133L602.912 172.105Z" fill="white"/>
<path d="M593.925 168.938L588.075 171.839L591.212 177.867L597.062 174.965L593.925 168.938Z" fill="white"/>
<path d="M689.311 182.757L683.461 185.659L686.598 191.686L692.448 188.785L689.311 182.757Z" fill="white"/>
<path d="M686.552 191.686L680.702 194.587L683.839 200.615L689.689 197.713L686.552 191.686Z" fill="white"/>
<path d="M683.794 200.616L677.944 203.517L681.081 209.545L686.931 206.643L683.794 200.616Z" fill="white"/>
<path d="M651.673 223.949L645.823 226.85L648.96 232.878L654.81 229.976L651.673 223.949Z" fill="white"/>
<path d="M681.036 209.544L675.187 212.446L678.323 218.473L684.173 215.572L681.036 209.544Z" fill="white"/>
<path d="M669.291 215.306L663.441 218.208L666.578 224.235L672.428 221.333L669.291 215.306Z" fill="white"/>
<path d="M675.163 212.426L669.313 215.327L672.45 221.355L678.3 218.453L675.163 212.426Z" fill="white"/>
<path d="M657.546 221.067L651.696 223.969L654.833 229.996L660.683 227.095L657.546 221.067Z" fill="white"/>
<path d="M663.418 218.187L657.568 221.088L660.705 227.116L666.555 224.214L663.418 218.187Z" fill="white"/>
<path d="M645.801 226.829L639.951 229.73L643.088 235.758L648.938 232.856L645.801 226.829Z" fill="white"/>
<path d="M639.928 229.71L634.078 232.611L637.215 238.639L643.065 235.737L639.928 229.71Z" fill="white"/>
<path d="M634.056 232.591L628.206 235.492L631.343 241.52L637.193 238.618L634.056 232.591Z" fill="white"/>
<path d="M625.069 229.423L619.219 232.325L622.355 238.352L628.205 235.451L625.069 229.423Z" fill="white"/>
<path d="M616.081 226.255L610.231 229.157L613.368 235.184L619.218 232.283L616.081 226.255Z" fill="white"/>
<path d="M607.095 223.087L601.245 225.989L604.382 232.016L610.232 229.115L607.095 223.087Z" fill="white"/>
<path d="M692.069 173.827L686.219 176.729L689.355 182.756L695.205 179.855L692.069 173.827Z" fill="white"/>
<path d="M688.954 167.779L683.104 170.68L686.241 176.708L692.091 173.806L688.954 167.779Z" fill="white"/>
<path d="M685.84 161.731L679.99 164.632L683.127 170.66L688.977 167.758L685.84 161.731Z" fill="white"/>
<path d="M591.879 207.822L586.029 210.724L589.166 216.751L595.016 213.85L591.879 207.822Z" fill="white"/>
<path d="M588.765 201.774L582.915 204.676L586.052 210.703L591.902 207.802L588.765 201.774Z" fill="white"/>
<path d="M598.108 219.919L592.258 222.821L595.395 228.848L601.244 225.947L598.108 219.919Z" fill="white"/>
<path d="M594.994 213.87L589.144 216.772L592.28 222.799L598.13 219.898L594.994 213.87Z" fill="white"/>
<path d="M679.612 149.633L673.762 152.535L676.898 158.562L682.748 155.661L679.612 149.633Z" fill="white"/>
<path d="M676.497 143.585L670.647 146.486L673.784 152.514L679.634 149.612L676.497 143.585Z" fill="white"/>
<path d="M673.383 137.536L667.533 140.438L670.67 146.465L676.52 143.564L673.383 137.536Z" fill="white"/>
<path d="M682.726 155.681L676.876 158.583L680.013 164.61L685.863 161.709L682.726 155.681Z" fill="white"/>
<path d="M667.155 125.439L661.305 128.341L664.441 134.368L670.291 131.467L667.155 125.439Z" fill="white"/>
<path d="M670.269 131.488L664.419 134.389L667.556 140.417L673.406 137.515L670.269 131.488Z" fill="white"/>
<path d="M658.167 122.272L652.317 125.173L655.454 131.201L661.304 128.299L658.167 122.272Z" fill="white"/>
<path d="M649.18 119.104L643.33 122.005L646.467 128.033L652.317 125.131L649.18 119.104Z" fill="white"/>
<path d="M640.194 115.936L634.344 118.837L637.48 124.865L643.33 121.963L640.194 115.936Z" fill="white"/>
<path d="M631.206 112.768L625.356 115.67L628.493 121.697L634.343 118.796L631.206 112.768Z" fill="white"/>
<path d="M625.333 115.65L619.483 118.551L622.62 124.579L628.47 121.677L625.333 115.65Z" fill="white"/>
<path d="M619.461 118.53L613.611 121.431L616.748 127.459L622.598 124.557L619.461 118.53Z" fill="white"/>
<path d="M613.589 121.41L607.739 124.312L610.876 130.339L616.726 127.438L613.589 121.41Z" fill="white"/>
<path d="M607.716 124.291L601.866 127.193L605.003 133.22L610.853 130.319L607.716 124.291Z" fill="white"/>
<path d="M601.844 127.172L595.994 130.073L599.131 136.101L604.981 133.199L601.844 127.172Z" fill="white"/>
<path d="M595.971 130.053L590.121 132.955L593.258 138.982L599.108 136.08L595.971 130.053Z" fill="white"/>
<path d="M590.099 132.933L584.249 135.835L587.386 141.862L593.236 138.961L590.099 132.933Z" fill="white"/>
<path d="M584.226 135.815L578.376 138.716L581.513 144.744L587.363 141.842L584.226 135.815Z" fill="white"/>
<path d="M581.468 144.743L575.618 147.645L578.755 153.672L584.605 150.771L581.468 144.743Z" fill="white"/>
<path d="M578.709 153.673L572.859 156.575L575.996 162.602L581.846 159.701L578.709 153.673Z" fill="white"/>
<path d="M575.952 162.602L570.102 165.504L573.238 171.531L579.088 168.63L575.952 162.602Z" fill="white"/>
<path d="M585.651 195.725L579.801 198.627L582.937 204.654L588.787 201.753L585.651 195.725Z" fill="white"/>
<path d="M582.537 189.677L576.687 192.578L579.823 198.606L585.673 195.704L582.537 189.677Z" fill="white"/>
<path d="M579.422 183.628L573.572 186.53L576.709 192.557L582.559 189.656L579.422 183.628Z" fill="white"/>
<path d="M576.308 177.58L570.458 180.481L573.595 186.509L579.445 183.607L576.308 177.58Z" fill="white"/>
<path d="M573.194 171.532L567.344 174.433L570.48 180.461L576.33 177.559L573.194 171.532Z" fill="white"/>
<path d="M164.466 437.783L158.966 434.271L155.172 439.935L160.672 443.446L164.466 437.783Z" fill="white"/>
<path d="M155.172 439.949L149.672 436.438L145.878 442.101L151.378 445.612L155.172 439.949Z" fill="white"/>
<path d="M144.161 432.94L138.662 429.428L134.868 435.091L140.367 438.603L144.161 432.94Z" fill="white"/>
<path d="M149.667 436.444L144.167 432.932L140.373 438.595L145.873 442.107L149.667 436.444Z" fill="white"/>
<path d="M138.657 429.435L133.157 425.923L129.363 431.586L134.863 435.098L138.657 429.435Z" fill="white"/>
<path d="M133.152 425.93L127.652 422.419L123.858 428.082L129.358 431.594L133.152 425.93Z" fill="white"/>
<path d="M131.435 416.756L125.935 413.245L122.141 418.908L127.641 422.419L131.435 416.756Z" fill="white"/>
<path d="M190.631 422.112L185.131 418.601L181.337 424.264L186.837 427.775L190.631 422.112Z" fill="white"/>
<path d="M187.198 403.762L181.698 400.251L177.904 405.914L183.404 409.426L187.198 403.762Z" fill="white"/>
<path d="M179.62 415.102L174.121 411.591L170.327 417.254L175.826 420.765L179.62 415.102Z" fill="white"/>
<path d="M188.914 412.937L183.415 409.425L179.621 415.088L185.12 418.6L188.914 412.937Z" fill="white"/>
<path d="M198.208 410.771L192.708 407.26L188.915 412.923L194.414 416.434L198.208 410.771Z" fill="white"/>
<path d="M135.579 387.067L130.08 383.555L126.286 389.218L131.785 392.73L135.579 387.067Z" fill="white"/>
<path d="M154.166 382.735L148.667 379.224L144.873 384.887L150.372 388.398L154.166 382.735Z" fill="white"/>
<path d="M146.589 394.076L141.089 390.564L137.295 396.228L142.795 399.739L146.589 394.076Z" fill="white"/>
<path d="M144.873 384.901L139.374 381.389L135.58 387.052L141.079 390.564L144.873 384.901Z" fill="white"/>
<path d="M143.156 375.726L137.657 372.215L133.863 377.878L139.363 381.389L143.156 375.726Z" fill="white"/>
<path d="M178.909 463.141L173.41 459.63L169.616 465.293L175.115 468.804L178.909 463.141Z" fill="white"/>
<path d="M169.615 465.307L164.116 461.795L160.322 467.458L165.821 470.97L169.615 465.307Z" fill="white"/>
<path d="M160.322 467.472L154.822 463.96L151.028 469.623L156.528 473.135L160.322 467.472Z" fill="white"/>
<path d="M123.502 452.115L118.002 448.604L114.208 454.267L119.708 457.779L123.502 452.115Z" fill="white"/>
<path d="M151.028 469.638L145.528 466.126L141.734 471.79L147.234 475.301L151.028 469.638Z" fill="white"/>
<path d="M140.018 462.63L134.518 459.118L130.724 464.781L136.224 468.293L140.018 462.63Z" fill="white"/>
<path d="M145.523 466.134L140.023 462.622L136.229 468.285L141.729 471.797L145.523 466.134Z" fill="white"/>
<path d="M129.007 455.62L123.507 452.108L119.713 457.771L125.213 461.283L129.007 455.62Z" fill="white"/>
<path d="M134.512 459.124L129.012 455.613L125.218 461.276L130.718 464.787L134.512 459.124Z" fill="white"/>
<path d="M117.997 448.612L112.498 445.1L108.704 450.763L114.203 454.275L117.997 448.612Z" fill="white"/>
<path d="M112.491 445.106L106.992 441.595L103.198 447.258L108.697 450.769L112.491 445.106Z" fill="white"/>
<path d="M106.987 441.602L101.487 438.09L97.6928 443.753L103.193 447.265L106.987 441.602Z" fill="white"/>
<path d="M105.27 432.427L99.77 428.916L95.976 434.579L101.476 438.09L105.27 432.427Z" fill="white"/>
<path d="M103.553 423.253L98.0532 419.742L94.2592 425.405L99.759 428.916L103.553 423.253Z" fill="white"/>
<path d="M101.837 414.078L96.3374 410.567L92.5434 416.23L98.0432 419.741L101.837 414.078Z" fill="white"/>
<path d="M188.202 460.976L182.703 457.464L178.909 463.127L184.408 466.639L188.202 460.976Z" fill="white"/>
<path d="M191.991 455.305L186.492 451.794L182.698 457.457L188.197 460.968L191.991 455.305Z" fill="white"/>
<path d="M195.78 449.636L190.28 446.124L186.486 451.787L191.986 455.299L195.78 449.636Z" fill="white"/>
<path d="M107.698 393.564L102.198 390.052L98.4038 395.715L103.904 399.227L107.698 393.564Z" fill="white"/>
<path d="M111.487 387.893L105.987 384.382L102.193 390.045L107.693 393.556L111.487 387.893Z" fill="white"/>
<path d="M100.12 404.904L94.6206 401.392L90.8266 407.055L96.3264 410.567L100.12 404.904Z" fill="white"/>
<path d="M103.909 399.233L98.4097 395.722L94.6157 401.385L100.115 404.896L103.909 399.233Z" fill="white"/>
<path d="M203.358 438.295L197.858 434.783L194.064 440.446L199.564 443.958L203.358 438.295Z" fill="white"/>
<path d="M207.146 432.625L201.646 429.114L197.852 434.777L203.352 438.288L207.146 432.625Z" fill="white"/>
<path d="M210.935 426.954L205.435 423.443L201.641 429.106L207.141 432.617L210.935 426.954Z" fill="white"/>
<path d="M199.569 443.965L194.069 440.453L190.275 446.116L195.775 449.628L199.569 443.965Z" fill="white"/>
<path d="M218.512 415.615L213.012 412.104L209.218 417.767L214.718 421.278L218.512 415.615Z" fill="white"/>
<path d="M214.724 421.285L209.224 417.773L205.43 423.436L210.93 426.948L214.724 421.285Z" fill="white"/>
<path d="M216.796 406.44L211.296 402.929L207.502 408.592L213.002 412.103L216.796 406.44Z" fill="white"/>
<path d="M215.079 397.265L209.58 393.754L205.786 399.417L211.285 402.928L215.079 397.265Z" fill="white"/>
<path d="M213.363 388.091L207.863 384.579L204.069 390.242L209.569 393.754L213.363 388.091Z" fill="white"/>
<path d="M211.646 378.917L206.146 375.405L202.352 381.068L207.852 384.58L211.646 378.917Z" fill="white"/>
<path d="M206.141 375.412L200.641 371.9L196.847 377.563L202.347 381.075L206.141 375.412Z" fill="white"/>
<path d="M200.636 371.907L195.136 368.396L191.342 374.059L196.842 377.57L200.636 371.907Z" fill="white"/>
<path d="M195.131 368.403L189.631 364.892L185.837 370.555L191.337 374.066L195.131 368.403Z" fill="white"/>
<path d="M189.625 364.899L184.125 361.387L180.332 367.05L185.831 370.562L189.625 364.899Z" fill="white"/>
<path d="M184.12 361.394L178.621 357.883L174.827 363.546L180.326 367.057L184.12 361.394Z" fill="white"/>
<path d="M178.615 357.889L173.116 354.377L169.322 360.04L174.822 363.552L178.615 357.889Z" fill="white"/>
<path d="M173.11 354.385L167.61 350.873L163.816 356.536L169.316 360.048L173.11 354.385Z" fill="white"/>
<path d="M167.605 350.881L162.105 347.37L158.311 353.033L163.811 356.544L167.605 350.881Z" fill="white"/>
<path d="M158.311 353.046L152.811 349.534L149.017 355.197L154.517 358.709L158.311 353.046Z" fill="white"/>
<path d="M149.017 355.212L143.517 351.7L139.723 357.363L145.223 360.875L149.017 355.212Z" fill="white"/>
<path d="M139.724 357.377L134.224 353.866L130.43 359.529L135.93 363.04L139.724 357.377Z" fill="white"/>
<path d="M115.276 382.223L109.776 378.712L105.982 384.375L111.482 387.886L115.276 382.223Z" fill="white"/>
<path d="M119.064 376.553L113.564 373.042L109.77 378.705L115.27 382.216L119.064 376.553Z" fill="white"/>
<path d="M122.853 370.883L117.353 367.372L113.559 373.035L119.059 376.546L122.853 370.883Z" fill="white"/>
<path d="M126.641 365.213L121.141 361.702L117.347 367.365L122.847 370.876L126.641 365.213Z" fill="white"/>
<path d="M130.43 359.543L124.93 356.032L121.136 361.695L126.636 365.206L130.43 359.543Z" fill="white"/>
<path d="M381.799 104.618L376.299 101.107L372.505 106.77L378.005 110.282L381.799 104.618Z" fill="white"/>
<path d="M372.505 106.784L367.005 103.273L363.211 108.936L368.711 112.447L372.505 106.784Z" fill="white"/>
<path d="M361.494 99.7752L355.995 96.2637L352.201 101.927L357.7 105.438L361.494 99.7752Z" fill="white"/>
<path d="M367 103.28L361.5 99.7681L357.707 105.431L363.206 108.943L367 103.28Z" fill="white"/>
<path d="M355.99 96.2703L350.49 92.7588L346.696 98.4219L352.196 101.933L355.99 96.2703Z" fill="white"/>
<path d="M350.485 92.7659L344.985 89.2544L341.191 94.9175L346.691 98.429L350.485 92.7659Z" fill="white"/>
<path d="M348.768 83.5915L343.268 80.0801L339.474 85.7431L344.974 89.2546L348.768 83.5915Z" fill="white"/>
<path d="M407.964 88.947L402.464 85.4355L398.67 91.0986L404.17 94.6101L407.964 88.947Z" fill="white"/>
<path d="M404.531 70.5979L399.031 67.0864L395.237 72.7495L400.737 76.261L404.531 70.5979Z" fill="white"/>
<path d="M396.953 81.9382L391.454 78.4268L387.66 84.0898L393.159 87.6013L396.953 81.9382Z" fill="white"/>
<path d="M406.247 79.7727L400.748 76.2612L396.954 81.9243L402.453 85.4358L406.247 79.7727Z" fill="white"/>
<path d="M415.541 77.6072L410.042 74.0957L406.248 79.7588L411.747 83.2702L415.541 77.6072Z" fill="white"/>
<path d="M352.912 53.9026L347.413 50.3911L343.619 56.0542L349.118 59.5656L352.912 53.9026Z" fill="white"/>
<path d="M371.499 49.571L366 46.0596L362.206 51.7226L367.705 55.2341L371.499 49.571Z" fill="white"/>
<path d="M363.922 60.9114L358.422 57.3999L354.628 63.063L360.128 66.5744L363.922 60.9114Z" fill="white"/>
<path d="M362.206 51.7366L356.707 48.2251L352.913 53.8882L358.412 57.3997L362.206 51.7366Z" fill="white"/>
<path d="M360.49 42.5618L354.99 39.0503L351.196 44.7134L356.696 48.2248L360.49 42.5618Z" fill="white"/>
<path d="M396.242 129.976L390.743 126.465L386.949 132.128L392.448 135.639L396.242 129.976Z" fill="white"/>
<path d="M386.948 132.142L381.449 128.631L377.655 134.294L383.155 137.805L386.948 132.142Z" fill="white"/>
<path d="M377.655 134.307L372.155 130.796L368.361 136.459L373.861 139.97L377.655 134.307Z" fill="white"/>
<path d="M340.835 118.951L335.335 115.439L331.541 121.103L337.041 124.614L340.835 118.951Z" fill="white"/>
<path d="M368.361 136.473L362.861 132.961L359.067 138.624L364.567 142.136L368.361 136.473Z" fill="white"/>
<path d="M357.351 129.465L351.851 125.954L348.057 131.617L353.557 135.128L357.351 129.465Z" fill="white"/>
<path d="M362.856 132.969L357.356 129.458L353.562 135.121L359.062 138.632L362.856 132.969Z" fill="white"/>
<path d="M346.34 122.455L340.84 118.944L337.046 124.607L342.546 128.118L346.34 122.455Z" fill="white"/>
<path d="M351.845 125.96L346.345 122.448L342.551 128.111L348.051 131.623L351.845 125.96Z" fill="white"/>
<path d="M335.33 115.447L329.831 111.936L326.037 117.599L331.536 121.11L335.33 115.447Z" fill="white"/>
<path d="M329.824 111.942L324.325 108.431L320.531 114.094L326.03 117.605L329.824 111.942Z" fill="white"/>
<path d="M324.32 108.437L318.82 104.926L315.026 110.589L320.526 114.1L324.32 108.437Z" fill="white"/>
<path d="M322.603 99.2634L317.103 95.752L313.309 101.415L318.809 104.926L322.603 99.2634Z" fill="white"/>
<path d="M320.886 90.0886L315.386 86.5771L311.592 92.2402L317.092 95.7517L320.886 90.0886Z" fill="white"/>
<path d="M319.17 80.9143L313.67 77.4028L309.876 83.0659L315.376 86.5774L319.17 80.9143Z" fill="white"/>
<path d="M405.535 127.811L400.036 124.3L396.242 129.963L401.741 133.474L405.535 127.811Z" fill="white"/>
<path d="M409.324 122.141L403.825 118.629L400.031 124.292L405.531 127.804L409.324 122.141Z" fill="white"/>
<path d="M413.113 116.471L407.613 112.959L403.819 118.623L409.319 122.134L413.113 116.471Z" fill="white"/>
<path d="M325.031 60.3992L319.531 56.8877L315.737 62.5508L321.237 66.0622L325.031 60.3992Z" fill="white"/>
<path d="M328.82 54.7283L323.32 51.2168L319.526 56.8799L325.026 60.3913L328.82 54.7283Z" fill="white"/>
<path d="M317.453 71.739L311.954 68.2275L308.16 73.8906L313.659 77.4021L317.453 71.739Z" fill="white"/>
<path d="M321.242 66.0686L315.743 62.5571L311.949 68.2202L317.448 71.7317L321.242 66.0686Z" fill="white"/>
<path d="M420.691 105.13L415.191 101.619L411.397 107.282L416.897 110.793L420.691 105.13Z" fill="white"/>
<path d="M424.479 99.4607L418.979 95.9492L415.185 101.612L420.685 105.124L424.479 99.4607Z" fill="white"/>
<path d="M428.268 93.7903L422.768 90.2788L418.974 95.9419L424.474 99.4533L428.268 93.7903Z" fill="white"/>
<path d="M416.902 110.801L411.402 107.289L407.608 112.952L413.108 116.464L416.902 110.801Z" fill="white"/>
<path d="M435.845 82.4504L430.345 78.939L426.551 84.602L432.051 88.1134L435.845 82.4504Z" fill="white"/>
<path d="M432.057 88.1204L426.557 84.6089L422.763 90.2719L428.263 93.7834L432.057 88.1204Z" fill="white"/>
<path d="M434.129 73.2766L428.629 69.7651L424.835 75.4282L430.335 78.9397L434.129 73.2766Z" fill="white"/>
<path d="M432.412 64.1008L426.913 60.5894L423.119 66.2524L428.618 69.7639L432.412 64.1008Z" fill="white"/>
<path d="M430.696 54.927L425.196 51.4155L421.402 57.0786L426.902 60.5901L430.696 54.927Z" fill="white"/>
<path d="M428.979 45.7522L423.479 42.2407L419.685 47.9038L425.185 51.4153L428.979 45.7522Z" fill="white"/>
<path d="M423.474 42.2473L417.974 38.7358L414.18 44.3989L419.68 47.9104L423.474 42.2473Z" fill="white"/>
<path d="M417.969 38.7434L412.469 35.2319L408.675 40.895L414.175 44.4065L417.969 38.7434Z" fill="white"/>
<path d="M412.464 35.2385L406.964 31.7271L403.17 37.3901L408.67 40.9016L412.464 35.2385Z" fill="white"/>
<path d="M406.958 31.7341L401.458 28.2227L397.665 33.8857L403.164 37.3971L406.958 31.7341Z" fill="white"/>
<path d="M401.453 28.2297L395.954 24.7183L392.16 30.3813L397.659 33.8927L401.453 28.2297Z" fill="white"/>
<path d="M395.949 24.7253L390.449 21.2139L386.655 26.8769L392.155 30.3884L395.949 24.7253Z" fill="white"/>
<path d="M390.443 21.22L384.943 17.7085L381.149 23.3716L386.649 26.883L390.443 21.22Z" fill="white"/>
<path d="M384.938 17.7165L379.438 14.2051L375.644 19.8681L381.144 23.3796L384.938 17.7165Z" fill="white"/>
<path d="M375.644 19.8811L370.144 16.3696L366.35 22.0327L371.85 25.5442L375.644 19.8811Z" fill="white"/>
<path d="M366.35 22.0471L360.85 18.5356L357.056 24.1987L362.556 27.7102L366.35 22.0471Z" fill="white"/>
<path d="M357.057 24.2127L351.557 20.7012L347.763 26.3643L353.263 29.8757L357.057 24.2127Z" fill="white"/>
<path d="M332.609 49.0588L327.109 45.5474L323.315 51.2104L328.815 54.7218L332.609 49.0588Z" fill="white"/>
<path d="M336.397 43.3884L330.897 39.877L327.103 45.54L332.603 49.0515L336.397 43.3884Z" fill="white"/>
<path d="M340.186 37.719L334.686 34.2075L330.892 39.8706L336.392 43.3821L340.186 37.719Z" fill="white"/>
<path d="M343.974 32.0486L338.474 28.5371L334.68 34.2002L340.18 37.7116L343.974 32.0486Z" fill="white"/>
<path d="M347.763 26.3786L342.263 22.8672L338.469 28.5302L343.969 32.0417L347.763 26.3786Z" fill="white"/>
<path d="M829.664 120.249L829.664 133.374L843.853 133.375L843.854 120.25L829.664 120.249Z" fill="white"/>
<path d="M801.286 146.499L801.285 159.624L815.474 159.625L815.475 146.5L801.286 146.499Z" fill="white"/>
<path d="M829.664 146.499L829.664 159.623L843.853 159.624L843.853 146.5L829.664 146.499Z" fill="white"/>
<path d="M815.476 133.375L815.476 146.5L829.665 146.501L829.665 133.376L815.476 133.375Z" fill="white"/>
<path d="M801.287 120.249L801.286 133.374L815.475 133.375L815.476 120.25L801.287 120.249Z" fill="white"/>
<path d="M829.664 251.498L829.664 264.622L843.853 264.623L843.853 251.499L829.664 251.498Z" fill="white"/>
<path d="M801.287 225.248L801.286 238.373L815.475 238.374L815.476 225.249L801.287 225.248Z" fill="white"/>
<path d="M829.664 225.248L829.664 238.373L843.853 238.374L843.854 225.249L829.664 225.248Z" fill="white"/>
<path d="M815.475 238.373L815.475 251.498L829.664 251.499L829.664 238.374L815.475 238.373Z" fill="white"/>
<path d="M801.287 251.498L801.286 264.623L815.475 264.624L815.476 251.499L801.287 251.498Z" fill="white"/>
<path d="M829.664 80.8748L829.664 93.999L843.853 94L843.854 80.8758L829.664 80.8748Z" fill="white"/>
<path d="M815.475 80.8753L815.475 93.9995L829.664 94.0005L829.664 80.8763L815.475 80.8753Z" fill="white"/>
<path d="M787.097 80.8743L787.097 93.9985L801.286 93.9995L801.286 80.8754L787.097 80.8743Z" fill="white"/>
<path d="M801.287 80.8748L801.286 93.999L815.475 94L815.476 80.8758L801.287 80.8748Z" fill="white"/>
<path d="M772.908 93.9998L772.907 107.124L787.096 107.125L787.097 94.0008L772.908 93.9998Z" fill="white"/>
<path d="M758.719 107.124L758.719 120.249L772.908 120.25L772.908 107.125L758.719 107.124Z" fill="white"/>
<path d="M744.531 120.249L744.53 133.374L758.719 133.374L758.72 120.25L744.531 120.249Z" fill="white"/>
<path d="M730.341 133.375L730.341 146.499L744.53 146.5L744.53 133.376L730.341 133.375Z" fill="white"/>
<path d="M730.341 146.499L730.341 159.623L744.53 159.624L744.53 146.5L730.341 146.499Z" fill="white"/>
<path d="M730.341 159.624L730.341 172.748L744.53 172.749L744.53 159.625L730.341 159.624Z" fill="white"/>
<path d="M730.341 172.748L730.341 185.873L744.53 185.874L744.53 172.749L730.341 172.748Z" fill="white"/>
<path d="M730.341 185.874L730.341 198.998L744.53 198.999L744.53 185.875L730.341 185.874Z" fill="white"/>
<path d="M730.341 198.999L730.341 212.123L744.53 212.124L744.53 199L730.341 198.999Z" fill="white"/>
<path d="M730.341 212.123L730.341 225.248L744.53 225.249L744.53 212.124L730.341 212.123Z" fill="white"/>
<path d="M730.341 225.248L730.341 238.372L744.53 238.373L744.53 225.249L730.341 225.248Z" fill="white"/>
<path d="M730.341 238.373L730.341 251.498L744.53 251.499L744.53 238.374L730.341 238.373Z" fill="white"/>
<path d="M744.531 251.498L744.53 264.622L758.719 264.623L758.72 251.499L744.531 251.498Z" fill="white"/>
<path d="M758.72 264.623L758.72 277.747L772.909 277.748L772.909 264.624L758.72 264.623Z" fill="white"/>
<path d="M772.908 277.747L772.907 290.872L787.096 290.873L787.097 277.748L772.908 277.747Z" fill="white"/>
<path d="M829.664 290.872L829.664 303.996L843.853 303.997L843.854 290.873L829.664 290.872Z" fill="white"/>
<path d="M815.475 290.872L815.475 303.996L829.664 303.997L829.664 290.873L815.475 290.872Z" fill="white"/>
<path d="M801.287 290.872L801.286 303.996L815.475 303.997L815.476 290.873L801.287 290.872Z" fill="white"/>
<path d="M787.097 290.872L787.097 303.996L801.286 303.997L801.286 290.873L787.097 290.872Z" fill="white"/>
</svg>
